# Blender v2.79 (sub 0) OBJ File: '1211.blend'
# www.blender.org
o Cylinder
v -2.712787 6.900290 1.710510
v -2.238663 4.888746 3.885113
v -2.717929 6.913605 1.723948
v -2.243806 4.902061 3.898551
v -2.719332 6.927805 1.737389
v -2.245209 4.916262 3.911992
v -2.716942 6.942346 1.750318
v -2.242818 4.930802 3.924921
v -2.710850 6.956667 1.762237
v -2.236726 4.945123 3.936841
v -2.701291 6.970220 1.772689
v -2.227167 4.958676 3.947292
v -2.688631 6.982482 1.781272
v -2.214508 4.970938 3.955875
v -2.673358 6.992983 1.787656
v -2.199234 4.981440 3.962259
v -2.656058 7.001320 1.791596
v -2.181935 4.989776 3.966199
v -2.637397 7.007171 1.792940
v -2.163273 4.995627 3.967543
v -2.618091 7.010312 1.791636
v -2.143967 4.998768 3.966239
v -2.598882 7.010623 1.787735
v -2.124758 4.999079 3.962338
v -2.580508 7.008091 1.781387
v -2.106385 4.996547 3.955990
v -2.563677 7.002813 1.772835
v -2.089553 4.991270 3.947438
v -2.549033 6.994993 1.762409
v -2.074909 4.983449 3.937012
v -2.537140 6.984931 1.750509
v -2.063017 4.973388 3.925112
v -2.528456 6.973014 1.737592
v -2.054332 4.961470 3.912194
v -2.523314 6.959699 1.724154
v -2.049190 4.948155 3.898757
v -2.521911 6.945498 1.710712
v -2.047787 4.933955 3.885315
v -2.524301 6.930958 1.697784
v -2.050178 4.919415 3.872386
v -2.530393 6.916636 1.685864
v -2.056269 4.905093 3.860467
v -2.539953 6.903084 1.675412
v -2.065829 4.891541 3.850015
v -2.552612 6.890822 1.666829
v -2.078488 4.879278 3.841432
v -2.567885 6.880321 1.660445
v -2.093761 4.868777 3.835048
v -2.585185 6.871984 1.656506
v -2.111061 4.860440 3.831109
v -2.603846 6.866133 1.655162
v -2.129723 4.854589 3.829765
v -2.623152 6.862992 1.656466
v -2.149029 4.851448 3.831069
v -2.642361 6.862681 1.660366
v -2.168238 4.851137 3.834970
v -2.660735 6.865213 1.666715
v -2.186611 4.853669 3.841318
v -2.677567 6.870491 1.675266
v -2.203443 4.858947 3.849869
v -2.692210 6.878311 1.685692
v -2.218086 4.866767 3.860295
v -2.704103 6.888373 1.697593
v -2.229979 4.876829 3.872196
vn -0.9520 -0.2985 -0.0685
vn -0.9848 -0.1602 0.0665
vn -0.9799 -0.0159 0.1990
vn -0.9373 0.1292 0.3238
vn -0.8586 0.2692 0.4362
vn -0.7470 0.3989 0.5319
vn -0.6067 0.5133 0.6071
vn -0.4430 0.6079 0.6589
vn -0.2623 0.6792 0.6855
vn -0.0716 0.7244 0.6857
vn 0.1219 0.7417 0.6595
vn 0.3108 0.7306 0.6080
vn 0.4876 0.6913 0.5332
vn 0.6458 0.6255 0.4378
vn 0.7791 0.5357 0.3256
vn 0.8825 0.4252 0.2010
vn 0.9520 0.2985 0.0685
vn 0.9848 0.1602 -0.0665
vn 0.9799 0.0158 -0.1990
vn 0.9373 -0.1292 -0.3238
vn 0.8586 -0.2692 -0.4362
vn 0.7470 -0.3989 -0.5319
vn 0.6067 -0.5133 -0.6071
vn 0.4430 -0.6079 -0.6589
vn 0.2623 -0.6792 -0.6855
vn 0.0716 -0.7244 -0.6857
vn -0.1219 -0.7417 -0.6595
vn -0.3108 -0.7306 -0.6080
vn -0.4876 -0.6913 -0.5332
vn -0.6458 -0.6255 -0.4378
vn 0.1580 -0.6705 0.7249
vn -0.7791 -0.5357 -0.3256
vn -0.8825 -0.4253 -0.2010
vn -0.1580 0.6705 -0.7249
s off
f 1//1 2//1 4//1 3//1
f 3//2 4//2 6//2 5//2
f 5//3 6//3 8//3 7//3
f 7//4 8//4 10//4 9//4
f 9//5 10//5 12//5 11//5
f 11//6 12//6 14//6 13//6
f 13//7 14//7 16//7 15//7
f 15//8 16//8 18//8 17//8
f 17//9 18//9 20//9 19//9
f 19//10 20//10 22//10 21//10
f 21//11 22//11 24//11 23//11
f 23//12 24//12 26//12 25//12
f 25//13 26//13 28//13 27//13
f 27//14 28//14 30//14 29//14
f 29//15 30//15 32//15 31//15
f 31//16 32//16 34//16 33//16
f 33//17 34//17 36//17 35//17
f 35//18 36//18 38//18 37//18
f 37//19 38//19 40//19 39//19
f 39//20 40//20 42//20 41//20
f 41//21 42//21 44//21 43//21
f 43//22 44//22 46//22 45//22
f 45//23 46//23 48//23 47//23
f 47//24 48//24 50//24 49//24
f 49//25 50//25 52//25 51//25
f 51//26 52//26 54//26 53//26
f 53//27 54//27 56//27 55//27
f 55//28 56//28 58//28 57//28
f 57//29 58//29 60//29 59//29
f 59//30 60//30 62//30 61//30
f 4//31 2//31 64//31 62//31 60//31 58//31 56//31 54//31 52//31 50//31 48//31 46//31 44//31 42//31 40//31 38//31 36//31 34//31 32//31 30//31 28//31 26//31 24//31 22//31 20//31 18//31 16//31 14//31 12//31 10//31 8//31 6//31
f 61//32 62//32 64//32 63//32
f 63//33 64//33 2//33 1//33
f 1//34 3//34 5//34 7//34 9//34 11//34 13//34 15//34 17//34 19//34 21//34 23//34 25//34 27//34 29//34 31//34 33//34 35//34 37//34 39//34 41//34 43//34 45//34 47//34 49//34 51//34 53//34 55//34 57//34 59//34 61//34 63//34
